<?xml version="1.0" encoding="utf-8"?>
<!-- Generator: Adobe Illustrator 27.2.0, SVG Export Plug-In . SVG Version: 6.00 Build 0)  -->
<svg width="48" height="48" version="1.1" id="Layer_1" xmlns="http://www.w3.org/2000/svg" xmlns:xlink="http://www.w3.org/1999/xlink" x="0px" y="0px"
	 viewBox="0 0 259 108" style="enable-background:new 0 0 259 108;" xml:space="preserve">
<style type="text/css">
	.st0{fill:none;}
	.st1{fill:#384EA1;}
</style>
<g>
	<rect class="st0" width="259" height="108"/>
	<path class="st1" d="M101.1,18.4L71.6,88.8H52.4L37.8,32.6c-0.9-3.5-1.6-4.7-4.3-6.2c-4.4-2.4-11.6-4.6-18-6l0.4-2h31
		c4,0,7.5,2.6,8.4,7.2L63,66.3l19-47.9L101.1,18.4L101.1,18.4z M176.6,65.8c0.1-18.6-25.7-19.6-25.5-27.9c0.1-2.5,2.5-5.2,7.7-5.9
		c2.6-0.3,9.8-0.6,18,3.2l3.2-14.9c-4.4-1.6-10-3.1-17-3.1c-18,0-30.7,9.6-30.8,23.3c-0.1,10.1,9,15.8,15.9,19.2
		c7.1,3.5,9.5,5.7,9.5,8.8c-0.1,4.7-5.7,6.8-10.9,6.9c-9.2,0.1-14.5-2.5-18.7-4.4l-3.3,15.4c4.3,2,12.1,3.7,20.3,3.7
		C164,89.9,176.5,80.4,176.6,65.8 M224.1,88.8H241l-14.7-70.4h-15.6c-3.5,0-6.4,2-7.8,5.2l-27.3,65.3h19.1l3.8-10.5h23.4L224.1,88.8
		z M203.8,63.8l9.6-26.4l5.5,26.4H203.8z M127.2,18.4l-15.1,70.4H93.9L109,18.4L127.2,18.4L127.2,18.4z"/>
</g>
</svg>
